<?xml version="1.0"?>
<svg width="1024" height="768" xmlns="http://www.w3.org/2000/svg" xmlns:svg="http://www.w3.org/2000/svg">
 <!-- Created with SVG-edit - http://svg-edit.googlecode.com/ -->

 <title>Lobster</title>
 <g display="inline">
  <title>Claw</title>
  <g id="claw-right">
   <title>claw</title>
   <path stroke="#000000" transform="rotate(-72.2645 647.449 265.169)" id="arm-right-1" d="m690.482605,297.270386c-16.137573,14.527924 -41.099182,17.484528 -60.85907,7.211792c-19.759888,-10.272736 -29.39093,-31.216278 -23.485291,-51.062225c5.905701,-19.845947 25.880127,-33.647278 48.695862,-33.647278l35.648499,77.497711l0,0z" stroke-linecap="null" stroke-linejoin="null" stroke-dasharray="null" stroke-width="5" fill="#FF0000"/>
   <path transform="rotate(117.345 623.062 148.105)" id="pincer-right" d="m553.447876,116.709381c-30.533203,48.014648 -17.535156,123.982422 -16.535156,122.982422c1,-1 76.073242,-86.830093 79.378906,-83.949219c3.305664,2.880875 -18.96582,88.378906 -17.40625,89.328125c1.55957,0.949219 35.660156,5.964844 82.660156,-55.035156c46.999817,-61 28.620972,-97.875 22.92572,-103.886719c-5.695313,-6.011719 -22.562439,-29.292969 -32.003906,-34.722672c-9.441406,-5.429672 -88.486267,17.26857 -119.01947,65.283218z" stroke-width="5" stroke="#000000" fill="#FF0000"/>
   <path stroke="#000000" id="arm-right-2" transform="rotate(-36.8293 621.574 309.419)" d="m660.851013,334.892914c-14.728882,11.528564 -37.511414,13.874756 -55.546326,5.7229c-18.034973,-8.151886 -26.825317,-24.771545 -21.435181,-40.520172c5.390137,-15.748657 23.620911,-26.700623 44.444885,-26.700623l32.536621,61.497894l0,0z" stroke-linecap="null" stroke-linejoin="null" stroke-dasharray="null" stroke-width="5" fill="#FF0000"/>
   <path stroke="#000000" id="arm-right-3" transform="rotate(-2.74812 586.324 327.794)" d="m613.776672,350.477264c-10.294739,10.265594 -26.218567,12.354767 -38.824036,5.095947c-12.60553,-7.25885 -18.749512,-22.0578 -14.982056,-36.081177c3.767395,-14.023376 16.509766,-23.775543 31.064636,-23.775543l22.741455,54.760773l0,0z" stroke-linecap="null" stroke-linejoin="null" stroke-dasharray="null" stroke-width="5" fill="#FF0000"/>
  </g>
  <g id="claw-left">
   <title>claw</title>
   <path stroke="#000000" id="arm-left-1" d="m313.3367,234.142029c-9.522675,19.592163 -4.412292,44.013855 12.45636,59.54361c16.868622,15.529755 41.292358,18.294434 59.548492,6.744141c18.256104,-11.550323 25.792542,-34.540253 18.374084,-56.047745l-90.378937,-10.240005l0,0z" stroke-linecap="null" stroke-linejoin="null" stroke-dasharray="null" stroke-width="5" fill="#FF0000"/>
   <path stroke="#000000" id="pincer-left" d="m322.097015,102.246857c30.552551,-48.670033 108.950867,-71.779449 108.493103,-70.445721c-0.457825,1.333714 -45.025604,106.350597 -40.673462,107.946926c4.352142,1.596344 74.493591,-56.851311 76.158203,-55.911781c1.664612,0.939507 23.139374,28.637291 -11.651093,97.686699c-34.790527,69.049286 -78.763,69.656265 -87.255096,67.382553c-8.492126,-2.273758 -38.835083,-6.517746 -48.612152,-12.34935c-9.777008,-5.831604 -27.012146,-85.639236 3.540497,-134.309326z" stroke-width="5" fill="#FF0000"/>
   <path stroke="#000000" id="arm-left-2" d="m337.727905,305.702576c5.207489,17.870697 23.170746,33.245178 43.794678,37.486786c20.623993,4.241638 38.7677,-3.709137 44.238892,-19.382599c5.471252,-15.673492 -3.096985,-35.164917 -20.888092,-47.51889l-67.145477,29.414703l0,0z" stroke-linecap="null" stroke-linejoin="null" stroke-dasharray="null" stroke-width="5" fill="#FF0000"/>
   <path stroke="#000000" id="arm-left-3" d="m394.778717,348.130829c10.450378,10.636627 27.320648,13.457489 41.131439,6.879883c13.810852,-6.577637 21.118622,-20.91571 17.819611,-34.957397c-3.29895,-14.041718 -16.385132,-24.286957 -31.902802,-24.977631l-27.048248,53.055145l0,0z" stroke-linecap="null" stroke-linejoin="null" stroke-dasharray="null" stroke-width="5" fill="#FF0000"/>
  </g>
 </g>
 <g>
  <title>Body</title>
  <g id="leg-left-1" transform="matrix(-1.05978 -0.0464434 -0.049273 0.998921 846.103 15.4989)">
   <title id="svg_67">leg</title>
   <path stroke="#000000" id="svg_68" d="m482.596008,434.917297l14.031982,-9.72699c0,0 19.190979,35.355988 19.190979,46.746002c0,11.390991 -33.222961,-37.019012 -33.222961,-37.019012z" stroke-linecap="null" stroke-linejoin="null" stroke-dasharray="null" stroke-width="5" fill="#FF0000"/>
   <path stroke="#000000" id="svg_69" d="m394.174988,383.343292c0.32901,0 26.980011,2.305023 47.708008,10.540009c20.727997,8.234009 47.050018,24.045013 46.834015,23.800995c-0.214996,-0.243988 -5.378021,14.078003 -5.593018,13.834015c-0.214996,-0.244019 -37.950989,-11.614014 -48.151001,-15.895996c-10.198975,-4.282013 -45.074982,-18.445007 -45.290985,-18.689026c-0.214996,-0.243988 4.492981,-13.589996 4.492981,-13.589996z" stroke-linecap="null" stroke-linejoin="null" stroke-dasharray="null" stroke-width="5" fill="#FF0000"/>
   <path stroke="#000000" id="svg_70" transform="rotate(-134.228 487.132 425.879)" d="m495.890015,432.281311c-3.285004,2.897003 -8.362,3.487 -12.383026,1.437988c-4.020996,-2.049011 -5.983978,-6.225983 -4.78299,-10.18399c1.205017,-3.957001 5.269012,-6.709015 9.910004,-6.709015l7.256012,15.455017l0,0z" stroke-linecap="null" stroke-linejoin="null" stroke-dasharray="null" stroke-width="5" fill="#FF0000"/>
   <path stroke="#000000" id="svg_71" transform="rotate(-152.808 388.889 389.967)" d="m398.906006,398.598297c-3.757996,3.904999 -9.565002,4.701996 -14.164001,1.938995c-4.600006,-2.763 -6.845001,-8.393982 -5.471008,-13.730988c1.378021,-5.334015 6.027008,-9.045013 11.334991,-9.045013l8.300018,20.837006l0,0z" stroke-linecap="null" stroke-linejoin="null" stroke-dasharray="null" stroke-width="5" fill="#FF0000"/>
  </g>
  <g id="leg-left-2" transform="matrix(-1.05532 0.102688 0.108944 0.994714 778.068 -30.1272)">
   <title id="svg_73">leg</title>
   <path stroke="#000000" id="svg_74" d="m479.010559,470.522736l14.031006,-9.72699c0,0 19.191956,35.355988 19.191956,46.746002c0,11.390991 -33.222961,-37.019012 -33.222961,-37.019012z" stroke-linecap="null" stroke-linejoin="null" stroke-dasharray="null" stroke-width="5" fill="#FF0000"/>
   <path stroke="#000000" id="svg_75" d="m390.589569,418.94873c0.328979,0 26.979004,2.305023 47.707001,10.540009c20.729004,8.234009 47.049988,24.045013 46.834991,23.800995c-0.214996,-0.243988 -5.377991,14.078003 -5.592987,13.834015c-0.216003,-0.244019 -37.951019,-11.614014 -48.151001,-15.895996c-10.200012,-4.282013 -45.076019,-18.445007 -45.291016,-18.689026c-0.214996,-0.243988 4.493011,-13.589996 4.493011,-13.589996z" stroke-linecap="null" stroke-linejoin="null" stroke-dasharray="null" stroke-width="5" fill="#FF0000"/>
   <path stroke="#000000" id="svg_76" transform="rotate(-134.228 483.547 461.486)" d="m492.304565,467.886749c-3.285004,2.897003 -8.362,3.487 -12.384003,1.437988c-4.020996,-2.049011 -5.984009,-6.225983 -4.78299,-10.18399c1.204987,-3.957001 5.268982,-6.709015 9.910004,-6.709015l7.256989,15.455017l0,0z" stroke-linecap="null" stroke-linejoin="null" stroke-dasharray="null" stroke-width="5" fill="#FF0000"/>
   <path stroke="#000000" id="svg_77" transform="rotate(-152.808 385.303 425.573)" d="m395.320557,434.203735c-3.757996,3.904999 -9.565002,4.701996 -14.164978,1.938995c-4.598999,-2.763 -6.843994,-8.393982 -5.471008,-13.730988c1.378998,-5.334015 6.026978,-9.045013 11.335999,-9.045013l8.299988,20.837006l0,0z" stroke-linecap="null" stroke-linejoin="null" stroke-dasharray="null" stroke-width="5" fill="#FF0000"/>
  </g>
  <g id="leg-left-3" transform="matrix(-1.01483 0.291542 0.309304 0.956558 662.883 -63.6072)">
   <title id="svg_79">leg</title>
   <path stroke="#000000" id="svg_80" d="m456.785278,497.001526l14.031982,-9.72699c0,0 19.19101,35.356018 19.19101,46.745972c0,11.391052 -33.222992,-37.018982 -33.222992,-37.018982z" stroke-linecap="null" stroke-linejoin="null" stroke-dasharray="null" stroke-width="5" fill="#FF0000"/>
   <path stroke="#000000" id="svg_81" d="m368.364258,445.426544c0.32901,0 26.980011,2.306 47.708008,10.540985c20.727997,8.234009 47.050018,24.045013 46.834015,23.800995c-0.214996,-0.243988 -5.378021,14.078003 -5.593018,13.834015c-0.214996,-0.244019 -37.950989,-11.614014 -48.151001,-15.895996c-10.198975,-4.282013 -45.075012,-18.445007 -45.290985,-18.688995c-0.215027,-0.244019 4.492981,-13.591003 4.492981,-13.591003z" stroke-linecap="null" stroke-linejoin="null" stroke-dasharray="null" stroke-width="5" fill="#FF0000"/>
   <path stroke="#000000" id="svg_82" transform="rotate(-134.228 461.321 487.965)" d="m470.079285,494.36554c-3.285004,2.895996 -8.362,3.487 -12.383026,1.437988c-4.020996,-2.049988 -5.983978,-6.225983 -4.78299,-10.18399c1.205017,-3.957001 5.269012,-6.709015 9.910004,-6.709015l7.256012,15.455017l0,0z" stroke-linecap="null" stroke-linejoin="null" stroke-dasharray="null" stroke-width="5" fill="#FF0000"/>
   <path stroke="#000000" id="svg_83" transform="rotate(-152.808 363.077 452.052)" d="m373.095276,460.681549c-3.758026,3.905975 -9.565002,4.702972 -14.164001,1.939972c-4.600006,-2.763 -6.845001,-8.393982 -5.471008,-13.730988c1.377991,-5.333984 6.027008,-9.04599 11.334991,-9.04599l8.300018,20.837006l0,0z" stroke-linecap="null" stroke-linejoin="null" stroke-dasharray="null" stroke-width="5" fill="#FF0000"/>
  </g>
  <ellipse stroke="#000000" ry="141.375003" rx="84.000004" id="svg_2" cy="386.625014" cx="505.999958" stroke-linecap="null" stroke-linejoin="null" stroke-dasharray="null" stroke-width="5" fill="#FF0000"/>
  <g transform="rotate(-2.66197 654.701 423.636)" id="leg-right-1">
   <title>leg</title>
   <path id="svg_40" d="m692.1875,430.125l14.03125,-9.726563c0,0 19.191406,35.355469 19.191406,46.746094c0,11.390625 -33.222656,-37.019531 -33.222656,-37.019531z" stroke-linecap="null" stroke-linejoin="null" stroke-dasharray="null" stroke-width="5" stroke="#000000" fill="#FF0000"/>
   <path stroke="#000000" id="svg_39" d="m603.766235,378.550781c0.329041,0 26.979614,2.305695 47.707825,10.540344c20.72821,8.234619 47.049744,24.045105 46.834473,23.801117c-0.215271,-0.243988 -5.378052,14.078186 -5.593323,13.834198c-0.215271,-0.243988 -37.950928,-11.613892 -48.150574,-15.895905c-10.199585,-4.282013 -45.075623,-18.445557 -45.290894,-18.689545c-0.215332,-0.243988 4.492493,-13.59021 4.492493,-13.59021z" stroke-linecap="null" stroke-linejoin="null" stroke-dasharray="null" stroke-width="5" fill="#FF0000"/>
   <path stroke="#000000" transform="rotate(-134.228 696.723 421.087)" id="svg_32" d="m705.481628,427.488861c-3.285278,2.896912 -8.362488,3.487762 -12.383667,1.438446c-4.021179,-2.049438 -5.98407,-6.226013 -4.783142,-10.184418c1.205078,-3.956268 5.269043,-6.708893 9.910095,-6.708893l7.256714,15.454865l0,0z" stroke-linecap="null" stroke-linejoin="null" stroke-dasharray="null" stroke-width="5" fill="#FF0000"/>
   <path stroke="#000000" id="svg_36" transform="rotate(-152.808 598.48 385.175)" d="m608.497498,393.805756c-3.757751,3.905792 -9.565002,4.702393 -14.16449,1.939392c-4.599365,-2.763123 -6.844604,-8.394226 -5.470947,-13.73114c1.378418,-5.334045 6.026733,-9.045258 11.335144,-9.045258l8.300293,20.837006l0,0z" stroke-linecap="null" stroke-linejoin="null" stroke-dasharray="null" stroke-width="5" fill="#FF0000"/>
  </g>
  <g transform="rotate(5.89395 645.841 477.636)" id="leg-right-2">
   <title id="svg_43">leg</title>
   <path id="svg_44" d="m683.328125,484.125l14.03125,-9.726563c0,0 19.191406,35.355469 19.191406,46.746094c0,11.390625 -33.222656,-37.019531 -33.222656,-37.019531z" stroke-linecap="null" stroke-linejoin="null" stroke-dasharray="null" stroke-width="5" stroke="#000000" fill="#FF0000"/>
   <path id="svg_45" stroke="#000000" d="m594.90686,432.550781c0.329041,0 26.979614,2.305695 47.707825,10.540344c20.72821,8.234619 47.049744,24.045105 46.834473,23.801117c-0.215271,-0.243988 -5.378052,14.078186 -5.593323,13.834198c-0.215271,-0.243988 -37.950928,-11.613892 -48.150574,-15.895905c-10.199585,-4.282013 -45.075623,-18.445557 -45.290894,-18.689545c-0.215332,-0.243988 4.492493,-13.59021 4.492493,-13.59021z" stroke-linecap="null" stroke-linejoin="null" stroke-dasharray="null" stroke-width="5" fill="#FF0000"/>
   <path id="svg_46" stroke="#000000" transform="rotate(-134.228 687.864 475.088)" d="m696.622253,481.488861c-3.285278,2.896912 -8.362488,3.487762 -12.383667,1.438446c-4.021179,-2.049438 -5.98407,-6.226013 -4.783142,-10.184418c1.205078,-3.956268 5.269043,-6.708893 9.910095,-6.708893l7.256714,15.454865l0,0z" stroke-linecap="null" stroke-linejoin="null" stroke-dasharray="null" stroke-width="5" fill="#FF0000"/>
   <path id="svg_47" stroke="#000000" transform="rotate(-152.808 589.62 439.175)" d="m599.638123,447.805756c-3.757751,3.905792 -9.565002,4.702393 -14.16449,1.939392c-4.599365,-2.763123 -6.844604,-8.394226 -5.470947,-13.73114c1.378418,-5.334045 6.026733,-9.045258 11.335144,-9.045258l8.300293,20.837006l0,0z" stroke-linecap="null" stroke-linejoin="null" stroke-dasharray="null" stroke-width="5" fill="#FF0000"/>
  </g>
  <g id="leg-right-3" transform="rotate(16.9503 620.95 528.683)">
   <title id="svg_49">leg</title>
   <path id="svg_50" d="m658.4375,535.171875l14.03125,-9.726563c0,0 19.191406,35.355469 19.191406,46.746094c0,11.390625 -33.222656,-37.019531 -33.222656,-37.019531z" stroke-linecap="null" stroke-linejoin="null" stroke-dasharray="null" stroke-width="5" stroke="#000000" fill="#FF0000"/>
   <path id="svg_51" stroke="#000000" d="m570.016235,483.597656c0.329041,0 26.979614,2.305695 47.707825,10.540344c20.72821,8.234619 47.049744,24.045105 46.834473,23.801086c-0.215271,-0.243958 -5.378052,14.078247 -5.593323,13.834229c-0.215271,-0.243958 -37.950928,-11.613892 -48.150574,-15.895874c-10.199585,-4.282043 -45.075623,-18.445587 -45.290894,-18.689575c-0.215332,-0.243988 4.492493,-13.59021 4.492493,-13.59021z" stroke-linecap="null" stroke-linejoin="null" stroke-dasharray="null" stroke-width="5" fill="#FF0000"/>
   <path id="svg_52" stroke="#000000" transform="rotate(-134.228 662.973 526.135)" d="m671.731628,532.535767c-3.285278,2.896851 -8.362488,3.487732 -12.383667,1.438416c-4.021179,-2.049438 -5.98407,-6.226013 -4.783142,-10.184387c1.205078,-3.956299 5.269043,-6.708923 9.910095,-6.708923l7.256714,15.454895l0,0z" stroke-linecap="null" stroke-linejoin="null" stroke-dasharray="null" stroke-width="5" fill="#FF0000"/>
   <path id="svg_53" stroke="#000000" transform="rotate(-152.808 564.729 490.222)" d="m574.747498,498.852631c-3.757751,3.905792 -9.565002,4.702393 -14.16449,1.939392c-4.599365,-2.763123 -6.844604,-8.394226 -5.470947,-13.73114c1.378418,-5.334045 6.026733,-9.045258 11.335144,-9.045258l8.300293,20.837006l0,0z" stroke-linecap="null" stroke-linejoin="null" stroke-dasharray="null" stroke-width="5" fill="#FF0000"/>
  </g>
  <ellipse rx="0.316406" id="svg_90" cy="222.035149" cx="536.83202" stroke-linecap="null" stroke-linejoin="null" stroke-dasharray="null" stroke-width="5" stroke="#000000" fill="#000000"/>
  <path id="svg_97" stroke-linecap="round" stroke-linejoin="null" stroke-dasharray="null" stroke-width="5" stroke="#000000" fill="none"/>
  <path stroke="#000000" transform="rotate(13.4239 456.18 18.8836)" id="svg_99" d="m456.179718,18.883583c62.804169,41.056484 57.02182,113.822319 90.871307,209.490974" stroke-linecap="round" stroke-linejoin="null" stroke-dasharray="null" stroke-width="3" fill="none"/>
  <path id="svg_100" stroke="#000000" transform="rotate(13.4239 540.302 14.3742)" d="m545.187927,14.374245c-11.909973,74.502922 -18.792847,135.387215 15.056641,231.05587" stroke-linecap="round" stroke-linejoin="null" stroke-dasharray="null" stroke-width="3" fill="none"/>
  <ellipse stroke="#000000" ry="17.109693" rx="17.67169" id="svg_85" cy="293.65983" cx="482.116988" stroke-linecap="null" stroke-linejoin="null" stroke-dasharray="null" stroke-width="5" fill="#ffffff"/>
  <ellipse stroke="#000000" ry="2.997319" rx="3.371983" id="svg_89" cy="289.383245" cx="482.905636" stroke-linecap="null" stroke-linejoin="null" stroke-dasharray="null" stroke-width="4" fill="#000000"/>
  <ellipse stroke="#000000" id="svg_92" ry="17.109693" rx="17.67169" cy="292.130674" cx="529.742353" stroke-linecap="null" stroke-linejoin="null" stroke-dasharray="null" stroke-width="5" fill="#ffffff"/>
  <ellipse stroke="#000000" id="svg_94" ry="2.997319" rx="3.371983" cy="287.729201" cx="528.672437" stroke-linecap="null" stroke-linejoin="null" stroke-dasharray="null" stroke-width="4" fill="#000000"/>
 </g>
 <g>
  <title>Tail</title>
  <g id="tail-full">
   <title>tail</title>
   <path id="carpace-1" stroke="#000000" transform="rotate(-68.0344 504.056 524.067)" d="m557.852173,568.524414c-20.166565,20.11731 -51.377014,24.222412 -76.07193,9.989136c-24.707489,-14.230042 -36.752716,-43.229492 -29.365845,-70.715546c7.377136,-27.486633 32.351746,-46.605042 60.875031,-46.605042l44.562744,107.331451l0,0z" stroke-linecap="null" stroke-linejoin="null" stroke-dasharray="null" stroke-width="5" fill="#FF0000"/>
   <path stroke="#000000" id="carpace-2" transform="rotate(-68.0344 505.006 579.75)" d="m551.689026,618.329468c-17.499878,17.457092 -44.583221,21.019409 -66.012665,8.668213c-21.440338,-12.348328 -31.892792,-37.513123 -25.482727,-61.364563c6.401642,-23.85199 28.073792,-40.442322 52.825287,-40.442322l38.670105,93.138672l0,0z" stroke-linecap="null" stroke-linejoin="null" stroke-dasharray="null" stroke-width="5" fill="#FF0000"/>
   <path stroke="#000000" transform="rotate(-68.0344 505.241 627.334)" id="carpace-3" d="m549.283081,663.730774c-16.509949,16.469604 -42.061279,19.830383 -62.278503,8.177917c-20.227509,-11.649841 -30.088684,-35.391113 -24.041199,-57.893311c6.03949,-22.502747 26.485687,-38.154602 49.837097,-38.154602l36.482605,87.869995l0,0z" stroke-linecap="null" stroke-linejoin="null" stroke-dasharray="null" stroke-width="5" fill="#FF0000"/>
   <g id="tail">
    <path id="svg_27" d="m460.484375,643.262695l94.609375,-0.234375c17.62207,30.287109 50.743103,34.837891 58.324219,61.910156c7.581116,27.072266 7.642578,48.09082 -20.543945,49.672852c-28.186523,1.582031 -34.514648,-14.317383 -40.842773,-14.739258c-6.328125,-0.421875 -21.041016,15.84668 -42.556641,15.424805c-21.515625,-0.421875 -33.539063,-14.422852 -42.398438,-14.422852c-8.859375,0 -15.134766,15.583008 -35.806641,14.739258c-20.671875,-0.84375 -35.753906,-18.694336 -30.269531,-46.959961c5.484375,-28.265625 44.71875,-37.125 59.484375,-65.390625z" stroke-linecap="null" stroke-linejoin="null" stroke-dasharray="null" stroke-width="5" stroke="#000000" fill="#FF0000"/>
    <line transform="rotate(5.50643 473.987 697.263)" opacity="0.5" id="svg_24" y2="720.512695" x2="468.737259" y1="674.012695" x1="479.237259" stroke-linecap="round" stroke-linejoin="null" stroke-dasharray="null" stroke-width="4" stroke="#000000" fill="none"/>
    <line transform="rotate(-3.00336 544.338 696.337)" opacity="0.5" id="svg_25" y2="719.961914" x2="551.462845" y1="672.711914" x1="537.212845" stroke-linecap="round" stroke-linejoin="null" stroke-dasharray="null" stroke-width="4" stroke="#000000" fill="none"/>
   </g>
  </g>
 </g>
</svg>